<svg width="491" height="113" viewBox="0 0 491 113" fill="none" xmlns="http://www.w3.org/2000/svg">
<path d="M3.25 18.4375L8.96875 33.7656C9.6875 32.7969 10.5312 31.9531 11.5 31.2344C12.5 30.5156 13.3281 30.1562 13.9844 30.1562C14.3906 30.1562 14.6406 30.3438 14.7344 30.7188L35.125 90.625L43.9375 85.2344L35.125 54.1562C38.9688 50.9688 42.9062 47.2188 46.9375 42.9062C50.9688 38.5625 54.2188 34.4062 56.6875 30.4375C59.1875 26.4687 60.4375 23.2656 60.4375 20.8281C60.4375 19.9844 60.3125 19.3125 60.0625 18.8125C59.375 17.1875 58.4688 15.8125 57.3438 14.6875C56.25 13.5312 54.9844 12.6094 53.5469 11.9219C52.1406 11.2031 50.5625 10.6875 48.8125 10.375C47.0625 10.0313 45.1094 9.85938 42.9531 9.85938C40.3281 9.85938 37.5938 10.0781 34.75 10.5156C31.9062 10.9219 28.9531 11.5 25.8906 12.25C22.8594 12.9687 19.0156 13.9688 14.3594 15.25C9.73438 16.5312 6.03125 17.5938 3.25 18.4375ZM27.4375 26.5C29.5625 26 31.5 25.5312 33.25 25.0938C35.0312 24.625 36.8281 24.25 38.6406 23.9688C40.4844 23.6562 42.0312 23.5 43.2812 23.5C44.4062 23.5 45.3906 23.5938 46.2344 23.7812C47.9531 24.2813 48.8125 25.2812 48.8125 26.7812C48.8125 29.625 46.8594 33.3125 42.9531 37.8438C39.0469 42.375 35.7969 45.8906 33.2031 48.3906L27.4375 26.5ZM0.15625 16.5156C3.9375 15.2656 7.48438 14.1094 10.7969 13.0469C14.1406 11.9844 17.6562 10.9844 21.3438 10.0469C25.0312 9.07812 28.5469 8.3125 31.8906 7.75C35.2656 7.1875 38.5781 6.90625 41.8281 6.90625C44.3594 6.90625 46.6875 7.10937 48.8125 7.51562C50.9375 7.89062 52.9375 8.53125 54.8125 9.4375C56.7188 10.3437 58.4062 11.5625 59.875 13.0938C61.375 14.5938 62.5938 16.375 63.5312 18.4375C63.9062 19.2812 64.0938 20.1719 64.0938 21.1094C64.0938 24.6094 62.1719 28.9219 58.3281 34.0469C54.5156 39.1719 50.6719 43.6406 46.7969 47.4531C42.9531 51.2656 40.0781 54 38.1719 55.6562L46.6094 85.2344L34.3281 94.0938L12.8125 32.6406C12.75 32.6406 12.4531 32.9375 11.9219 33.5312C11.3906 34.125 10.6875 34.9062 9.8125 35.875C8.96875 36.8125 8.4375 37.3906 8.21875 37.6094C8.125 37.6094 7.8125 36.9375 7.28125 35.5938C6.78125 34.25 6.09375 32.3906 5.21875 30.0156C4.375 27.6094 3.42188 24.9531 2.35938 22.0469C1.26562 19.1094 0.53125 17.2656 0.15625 16.5156ZM30.4844 29.5469L34.3281 43.375C36.2656 41.4062 38.6719 38.7188 41.5469 35.3125C44.4219 31.9062 45.8594 29.4375 45.8594 27.9062C45.8594 27.3125 45.6094 26.9688 45.1094 26.875C43.7031 26.5625 42.3125 26.4062 40.9375 26.4062C36.8125 26.4062 33.3281 27.4531 30.4844 29.5469ZM97.375 42.625C94.7188 40.25 91.2969 39.0625 87.1094 39.0625C84.7969 39.0625 82.3594 39.5 79.7969 40.375C77.2344 41.2188 74.6406 42.5156 72.0156 44.2656C69.4219 45.9844 66.9375 48.125 64.5625 50.6875C63.0312 52.3438 61.7969 54.1094 60.8594 55.9844C59.9219 57.8281 59.2188 59.7656 58.75 61.7969C58.2812 63.7969 58.0469 65.8125 58.0469 67.8438C58.0469 71.8125 58.8125 75.5 60.3438 78.9062C61.9062 82.2812 64.0156 84.875 66.6719 86.6875C69.4219 88.5938 72.8125 89.5469 76.8438 89.5469C81.4062 89.5469 85.9375 88.2031 90.4375 85.5156C94.9688 82.7969 98.625 78.8594 101.406 73.7031C103.969 69.1406 105.25 64.5 105.25 59.7812C105.25 56.4062 104.578 53.2656 103.234 50.3594C101.891 47.4219 99.9375 44.8438 97.375 42.625ZM99.2969 40.2344C101.516 41.4219 103.312 43.0312 104.688 45.0625C106.094 47.0625 107.109 49.3281 107.734 51.8594C108.391 54.3594 108.719 56.9688 108.719 59.6875C108.719 61.9375 108.531 64.1094 108.156 66.2031C107.812 68.2969 107.328 70.2188 106.703 71.9688C106.078 73.7188 105.344 75.2031 104.5 76.4219C102.531 79.3594 100.422 81.8906 98.1719 84.0156C95.9219 86.1406 93.625 87.8594 91.2812 89.1719C88.9375 90.4531 86.6094 91.3906 84.2969 91.9844C82.0156 92.6094 79.75 92.9219 77.5 92.9219C74.8438 92.9219 72.3125 92.5 69.9062 91.6562C67.5312 90.8438 65.5 89.7656 63.8125 88.4219C61.0312 86.1094 58.8594 83 57.2969 79.0938C55.7344 75.1562 54.9531 71 54.9531 66.625C54.9531 59.0938 57.125 53.0156 61.4688 48.3906C65.1875 44.4219 69.0312 41.4375 73 39.4375C76.9688 37.4062 81.0312 36.3906 85.1875 36.3906C87.625 36.3906 89.9688 36.7031 92.2188 37.3281C94.4688 37.9219 96.8281 38.8906 99.2969 40.2344ZM96.5312 48.1094C96.9062 49.4219 97.0938 50.8594 97.0938 52.4219C97.0938 54.7031 96.6406 57.0156 95.7344 59.3594C94.8281 61.6719 93.5156 63.5781 91.7969 65.0781C90.0781 66.5469 88.1094 67.2812 85.8906 67.2812C83.6406 67.2812 81.2656 66.4844 78.7656 64.8906C76.0781 63.1719 74.7344 60.8594 74.7344 57.9531C74.7344 56.3906 75.1406 54.8438 75.9531 53.3125C76.7969 51.75 77.9062 50.3594 79.2812 49.1406C80.6562 47.8906 82.2969 46.875 84.2031 46.0938C86.1094 45.3125 88.1094 44.9219 90.2031 44.9219C88.1406 45.7344 86.625 46.8438 85.6562 48.25C84.7188 49.6562 84.25 51.0781 84.25 52.5156C84.25 54.3906 84.7188 55.7031 85.6562 56.4531C86.3125 56.8906 87.0625 57.1094 87.9062 57.1094C89.5938 57.1094 91.3125 56.2031 93.0625 54.3906C94.8438 52.5781 96 50.4844 96.5312 48.1094ZM169.469 31.8438L148.469 45.5781C147.062 42.0781 142.359 40.3281 134.359 40.3281C132.547 40.3281 130.688 41.625 128.781 44.2188C126.875 46.8125 125.922 49.7344 125.922 52.9844C126.078 55.4531 126.812 57.8281 128.125 60.1094C129.438 62.3594 131.766 63.5625 135.109 63.7188C137.609 63.7188 140.234 63.0469 142.984 61.7031C145.734 60.3594 148.109 57.6719 150.109 53.6406C150.234 53.8906 151.531 55.0625 154 57.1562C156.469 59.25 158.984 61.3438 161.547 63.4375C164.141 65.5312 166.047 67.0781 167.266 68.0781C164.891 73.7656 161.75 78.2188 157.844 81.4375C153.938 84.6562 149.844 86.8594 145.562 88.0469C141.281 89.2344 137.031 89.8281 132.812 89.8281C126.906 89.8281 121.703 88.7188 117.203 86.5C112.734 84.25 109.062 80.4219 106.188 75.0156C103.312 69.5781 101.562 62.2344 100.938 52.9844C100.875 52.0781 100.844 50.7031 100.844 48.8594C100.844 44.2344 101.391 39.7969 102.484 35.5469C103.547 31.2969 105.297 27.4688 107.734 24.0625C110.203 20.625 113.594 17.8281 117.906 15.6719C122.219 13.5156 127.438 12.3906 133.562 12.2969C137.625 12.2969 141.625 12.7812 145.562 13.75C149.5 14.6875 153.109 16.0156 156.391 17.7344C159.672 19.4219 162.484 21.5 164.828 23.9688C167.203 26.4062 168.75 29.0312 169.469 31.8438ZM164.031 30.625C163 28 160.938 25.6719 157.844 23.6406C154.781 21.5781 151.312 19.9844 147.438 18.8594C143.562 17.7344 139.875 17.1719 136.375 17.1719C135.281 17.1719 134.484 17.2031 133.984 17.2656C127.859 17.8281 122.875 19 119.031 20.7812C115.188 22.5312 112.234 24.875 110.172 27.8125C108.141 30.7188 106.734 34.1719 105.953 38.1719C105.172 42.1719 104.781 46.9844 104.781 52.6094C104.781 58.9219 106 64.7031 108.438 69.9531C110.875 75.2031 114.25 79.3281 118.562 82.3281C122.875 85.2969 127.75 86.7812 133.188 86.7812C135.875 86.625 138.5 86.2812 141.062 85.75C143.656 85.2188 146.266 84.3281 148.891 83.0781C151.516 81.8281 154.016 80.0625 156.391 77.7812C158.797 75.4688 160.922 72.5781 162.766 69.1094L150.109 58.5625C148.797 61.875 146.906 64 144.438 64.9375C142 65.875 139.156 66.5 135.906 66.8125C133.625 66.8125 131.438 66.0938 129.344 64.6562C127.25 63.2188 125.578 61.4219 124.328 59.2656C123.078 57.1094 122.453 55.0156 122.453 52.9844C122.453 50.5781 122.984 48.1094 124.047 45.5781C125.109 43.0156 126.625 40.8594 128.594 39.1094C130.594 37.3594 132.891 36.4844 135.484 36.4844C137.953 36.6094 140.844 37.1094 144.156 37.9844C147.5 38.8594 149.578 39.8906 150.391 41.0781L164.031 30.625ZM160.891 14.2188L159.344 20.7344L165.906 17.2656L170.125 101.734L186.625 101.359L185.875 75.25L234.625 102.531C234.5 100.281 234.312 97.4688 234.062 94.0938C233.844 90.75 233.656 89.0781 233.5 89.0781C233.406 89.0781 231.312 87.5469 227.219 84.4844C223.156 81.3906 218 77.4688 211.75 72.7188C205.5 67.9688 199.938 63.75 195.062 60.0625C190.188 56.375 186.734 53.7656 184.703 52.2344L208.516 18.8125C208.391 18.8125 207.25 17.9219 205.094 16.1406C202.938 14.3594 201.031 12.7656 199.375 11.3594C197.719 9.95312 196.422 8.85938 195.484 8.07812L180.484 23.4062L180.109 6.15625L160.891 14.2188ZM158.594 12.6719L182.406 2.6875V18.0625L195.062 4.60938L211.188 18.0625L188.172 51.4375L236.172 88.3281L237.297 107.125L188.547 80.6406L189.719 103.656L167.406 104.078L163.188 22.6562L156.297 24.2031L158.594 12.6719ZM258.438 65.0781L269.734 78.7188C268.828 81.3438 266.672 83.75 263.266 85.9375C259.891 88.125 255.859 89.8438 251.172 91.0938C246.516 92.375 241.859 93.0156 237.203 93.0156C233.078 93.0156 229.391 92.4688 226.141 91.375C222.922 90.2812 220.438 88.625 218.688 86.4062C215.656 82.5938 214.141 77.7188 214.141 71.7812C214.141 67.0938 214.984 62.4844 216.672 57.9531C218.391 53.3906 220.203 50.2031 222.109 48.3906C224.391 46.2344 226.859 44.4375 229.516 43C232.203 41.5625 234.984 40.4844 237.859 39.7656C240.734 39.0469 243.688 38.6875 246.719 38.6875C250.688 38.6875 254.453 39.3281 258.016 40.6094C261.609 41.8594 264.75 43.6875 267.438 46.0938L241.703 76.7969C243.984 76.7969 246.141 76.3281 248.172 75.3906C250.234 74.4219 252.125 73.0625 253.844 71.3125C255.562 69.5312 257.094 67.4531 258.438 65.0781ZM258.719 67.6562C258.719 69.2188 257.594 70.9688 255.344 72.9062C253.125 74.8438 250.422 76.5 247.234 77.875C244.047 79.25 241.188 79.9375 238.656 79.9375C237.688 79.9375 236.984 79.875 236.547 79.75L264.391 46.375C261.672 44.7812 258.672 43.5156 255.391 42.5781C252.141 41.6406 248.828 41.1719 245.453 41.1719C241.516 41.1719 237.766 41.875 234.203 43.2812C230.641 44.6875 227.391 46.9688 224.453 50.125C223.047 51.625 221.781 53.5312 220.656 55.8438C219.562 58.1562 218.688 60.7188 218.031 63.5312C217.375 66.3438 217.047 69.125 217.047 71.875C217.047 77.875 218.641 82.4219 221.828 85.5156C225.734 89.2344 231.078 91.0938 237.859 91.0938C241.922 91.0938 246.062 90.4688 250.281 89.2188C254.531 87.9375 258.203 86.2969 261.297 84.2969C264.391 82.2969 266.375 80.3125 267.25 78.3438L258.719 67.6562ZM230.781 75.4375C229.875 74.9062 229.094 73.5938 228.438 71.5C227.812 69.4062 227.5 67.1406 227.5 64.7031C227.5 60.1094 228.594 56.5938 230.781 54.1562C231.719 53.0938 232.969 52.2344 234.531 51.5781C236.094 50.9219 237.812 50.5938 239.688 50.5938C242.844 50.5938 245.828 51.5781 248.641 53.5469L230.781 75.4375ZM245.453 54.1562C243.922 53.375 242.359 52.9844 240.766 52.9844C239.078 52.9844 237.438 53.3281 235.844 54.0156C234.281 54.7031 233.172 55.5156 232.516 56.4531C230.578 58.9531 229.609 61.7031 229.609 64.7031C229.609 65.7969 229.719 66.8438 229.938 67.8438C230.156 68.8438 230.531 70.2188 231.062 71.9688L245.453 54.1562ZM224.031 20.7344L227.125 26.5L253.609 21.8594L245.547 9.20312L224.031 20.7344ZM221.359 20.3594L246.344 6.53125L257.078 23.0312L226.75 28.7969L221.359 20.3594ZM303.531 26.125L327.719 25.3281L326.969 9.57812L256.328 13.4219L256.703 28.0469L285.109 26.875L288.953 87.9062C290.359 88.1875 292.5 88.5312 295.375 88.9375C298.25 89.3438 300.656 89.5469 302.594 89.5469C305.281 89.5469 306.625 89.1719 306.625 88.4219C306.625 88.3906 306.625 88.3594 306.625 88.3281L303.531 26.125ZM306.625 29.1719L309.297 92.1719H306.438C304.562 92.1719 302.188 92.1094 299.312 91.9844C296.438 91.8906 293.828 91.6875 291.484 91.375C289.141 91.0938 287.406 90.7188 286.281 90.25L283.188 29.9219L253.984 30.3438L254.406 11.875L329.266 6.90625L330.438 27.25L306.625 29.1719ZM345.953 23.0312L324.438 24.2031L319.469 87.1562L340.938 85.6094L343.656 57.2031C344.25 58.3594 345.094 60 346.188 62.125C347.281 64.25 348.516 66.5938 349.891 69.1562C351.266 71.6875 352 72.9531 352.094 72.9531C352.219 72.9531 353.375 70.7969 355.562 66.4844C357.781 62.1719 358.938 59.9688 359.031 59.875L364.75 92.9219L387.062 95.5938C386.375 92.4062 385.109 86.5312 383.266 77.9688C381.422 69.4062 379.516 60.5469 377.547 51.3906C375.609 42.2344 373.953 34.3594 372.578 27.7656C371.203 21.1719 370.516 17.6719 370.516 17.2656L358.609 17.6406L352.094 35.3125L345.953 23.0312ZM322.891 21.1094L345.953 19.5625L352.094 29.5469L357.484 15.7188L372.438 15.3438L390.109 97.5156L362.828 94.8438L357.859 66.8125L352.469 77.1719L345.203 64.1406L342.859 87.9062L316.375 89.8281L322.891 21.1094ZM423.812 42.625C421.156 40.25 417.734 39.0625 413.547 39.0625C411.234 39.0625 408.797 39.5 406.234 40.375C403.672 41.2188 401.078 42.5156 398.453 44.2656C395.859 45.9844 393.375 48.125 391 50.6875C389.469 52.3438 388.234 54.1094 387.297 55.9844C386.359 57.8281 385.656 59.7656 385.188 61.7969C384.719 63.7969 384.484 65.8125 384.484 67.8438C384.484 71.8125 385.25 75.5 386.781 78.9062C388.344 82.2812 390.453 84.875 393.109 86.6875C395.859 88.5938 399.25 89.5469 403.281 89.5469C407.844 89.5469 412.375 88.2031 416.875 85.5156C421.406 82.7969 425.062 78.8594 427.844 73.7031C430.406 69.1406 431.688 64.5 431.688 59.7812C431.688 56.4062 431.016 53.2656 429.672 50.3594C428.328 47.4219 426.375 44.8438 423.812 42.625ZM425.734 40.2344C427.953 41.4219 429.75 43.0312 431.125 45.0625C432.531 47.0625 433.547 49.3281 434.172 51.8594C434.828 54.3594 435.156 56.9688 435.156 59.6875C435.156 61.9375 434.969 64.1094 434.594 66.2031C434.25 68.2969 433.766 70.2188 433.141 71.9688C432.516 73.7188 431.781 75.2031 430.938 76.4219C428.969 79.3594 426.859 81.8906 424.609 84.0156C422.359 86.1406 420.062 87.8594 417.719 89.1719C415.375 90.4531 413.047 91.3906 410.734 91.9844C408.453 92.6094 406.188 92.9219 403.938 92.9219C401.281 92.9219 398.75 92.5 396.344 91.6562C393.969 90.8438 391.938 89.7656 390.25 88.4219C387.469 86.1094 385.297 83 383.734 79.0938C382.172 75.1562 381.391 71 381.391 66.625C381.391 59.0938 383.562 53.0156 387.906 48.3906C391.625 44.4219 395.469 41.4375 399.438 39.4375C403.406 37.4062 407.469 36.3906 411.625 36.3906C414.062 36.3906 416.406 36.7031 418.656 37.3281C420.906 37.9219 423.266 38.8906 425.734 40.2344ZM422.969 48.1094C423.344 49.4219 423.531 50.8594 423.531 52.4219C423.531 54.7031 423.078 57.0156 422.172 59.3594C421.266 61.6719 419.953 63.5781 418.234 65.0781C416.516 66.5469 414.547 67.2812 412.328 67.2812C410.078 67.2812 407.703 66.4844 405.203 64.8906C402.516 63.1719 401.172 60.8594 401.172 57.9531C401.172 56.3906 401.578 54.8438 402.391 53.3125C403.234 51.75 404.344 50.3594 405.719 49.1406C407.094 47.8906 408.734 46.875 410.641 46.0938C412.547 45.3125 414.547 44.9219 416.641 44.9219C414.578 45.7344 413.062 46.8438 412.094 48.25C411.156 49.6562 410.688 51.0781 410.688 52.5156C410.688 54.3906 411.156 55.7031 412.094 56.4531C412.75 56.8906 413.5 57.1094 414.344 57.1094C416.031 57.1094 417.75 56.2031 419.5 54.3906C421.281 52.5781 422.438 50.4844 422.969 48.1094ZM487.281 9.57812L464.266 8.07812L467.312 48.7656L448.891 6.15625L425.453 3.4375L425.828 9.95312L434.312 11.125L436.188 102.156L452.734 101.734L454.281 50.6875L474.25 109.422L488.031 108.672L487.281 9.57812ZM451.188 2.6875L463.469 33.7656L460.797 5.35938L489.953 6.53125L490.75 111.719L473.453 112.891L455.781 62.9688L456.156 104.078L433.891 104.453L431.219 14.5938L423.156 12.6719L422.781 0.765625L451.188 2.6875Z" fill="black"/>
</svg>
