<svg width="147" height="17" viewBox="0 0 147 17" fill="none" xmlns="http://www.w3.org/2000/svg">
<path d="M6.1543 9.85742L5.64844 9.63184L6.43457 7.84082L10.2969 9.29688L9.40137 16.8574L5.92871 16.5771C6.05176 16.2035 6.22493 15.668 6.44824 14.9707C6.67155 14.278 6.8151 13.8245 6.87891 13.6104C6.58268 13.7562 5.98568 13.8291 5.08789 13.8291C4.22656 13.8291 3.46777 13.6673 2.81152 13.3438C2.15983 13.0156 1.62435 12.4574 1.20508 11.6689C0.785807 10.876 0.530599 9.80501 0.439453 8.45605C0.430339 8.32389 0.425781 8.12337 0.425781 7.85449C0.425781 7.18001 0.505534 6.53288 0.665039 5.91309C0.819987 5.29329 1.0752 4.73503 1.43066 4.23828C1.79069 3.73698 2.28516 3.3291 2.91406 3.01465C3.54297 2.7002 4.30404 2.53613 5.19727 2.52246C5.78971 2.52246 6.37305 2.5931 6.94727 2.73438C7.52148 2.87109 8.04785 3.06478 8.52637 3.31543C9.00488 3.56152 9.41504 3.86458 9.75684 4.22461C10.1032 4.58008 10.3288 4.96289 10.4336 5.37305L7.37109 7.37598C7.16602 6.86556 6.48014 6.61035 5.31348 6.61035C5.04915 6.61035 4.77799 6.79948 4.5 7.17773C4.22201 7.55599 4.08301 7.9821 4.08301 8.45605C4.10579 8.81608 4.21289 9.16243 4.4043 9.49512C4.5957 9.82324 4.93522 9.9987 5.42285 10.0215C5.46387 10.0215 5.53451 10.0101 5.63477 9.9873C5.73958 9.95996 5.83073 9.93717 5.9082 9.91895C5.99023 9.89616 6.07227 9.87565 6.1543 9.85742ZM15.6084 6.59668C15.932 6.76986 16.194 7.00456 16.3945 7.30078C16.5996 7.59245 16.7477 7.92285 16.8389 8.29199C16.9346 8.65658 16.9824 9.03711 16.9824 9.43359C16.9824 9.76172 16.9551 10.0785 16.9004 10.3838C16.8503 10.6891 16.7796 10.9694 16.6885 11.2246C16.5973 11.4798 16.4902 11.6963 16.3672 11.874C16.0801 12.3024 15.7725 12.6715 15.4443 12.9814C15.1162 13.2913 14.7812 13.542 14.4395 13.7334C14.0977 13.9202 13.7581 14.057 13.4209 14.1436C13.0882 14.2347 12.7578 14.2803 12.4297 14.2803C12.0423 14.2803 11.6732 14.2188 11.3223 14.0957C10.9759 13.9772 10.6797 13.82 10.4336 13.624C10.028 13.2868 9.71126 12.8333 9.4834 12.2637C9.25553 11.6895 9.1416 11.0833 9.1416 10.4453C9.1416 9.34701 9.45833 8.46061 10.0918 7.78613C10.6341 7.20736 11.1947 6.77214 11.7734 6.48047C12.3522 6.18424 12.9447 6.03613 13.5508 6.03613C13.9062 6.03613 14.248 6.08171 14.5762 6.17285C14.9043 6.25944 15.2484 6.40072 15.6084 6.59668ZM15.2051 7.74512C15.1276 8.09147 14.959 8.39681 14.6992 8.66113C14.444 8.92546 14.1934 9.05762 13.9473 9.05762C13.8242 9.05762 13.7148 9.02572 13.6191 8.96191C13.4824 8.85254 13.4141 8.66113 13.4141 8.3877C13.4141 8.17806 13.4824 7.9707 13.6191 7.76562C13.7604 7.56055 13.9814 7.39876 14.2822 7.28027C13.9814 7.28027 13.6898 7.33724 13.4072 7.45117C13.1292 7.5651 12.89 7.71322 12.6895 7.89551C12.4889 8.07324 12.3271 8.27604 12.2041 8.50391C12.0856 8.72721 12.0264 8.9528 12.0264 9.18066C12.0264 9.60449 12.2223 9.94173 12.6143 10.1924C12.9788 10.4248 13.3252 10.541 13.6533 10.541C13.9769 10.541 14.264 10.4339 14.5146 10.2197C14.7653 10.001 14.9567 9.72298 15.0889 9.38574C15.221 9.04395 15.2871 8.70671 15.2871 8.37402C15.2871 8.14616 15.2598 7.93652 15.2051 7.74512ZM17.6934 2.0166L20.6807 0.669922L20.6328 5.26367L22.8613 5.31836V7.9502L20.5508 7.97754C20.4688 8.62467 20.4277 9.23307 20.4277 9.80273C20.4277 10.2767 20.4551 10.6686 20.5098 10.9785C20.5553 11.2337 20.6693 11.4297 20.8516 11.5664C21.0339 11.7031 21.2458 11.7715 21.4873 11.7715C21.7562 11.7715 21.9909 11.6917 22.1914 11.5322C22.3965 11.3727 22.499 11.154 22.499 10.876C22.499 10.835 22.4899 10.7552 22.4717 10.6367L24.707 9.18066C24.8027 9.3584 24.9212 9.6569 25.0625 10.0762C25.2083 10.4954 25.2812 10.9535 25.2812 11.4502C25.2812 12.0472 25.124 12.5872 24.8096 13.0703C24.4951 13.5534 23.9574 13.9202 23.1963 14.1709C22.6631 14.3441 22.1595 14.4307 21.6855 14.4307C20.9701 14.4307 20.3389 14.2734 19.792 13.959C19.2497 13.6445 18.7985 13.2663 18.4385 12.8242C18.2699 12.6191 18.1377 12.2796 18.042 11.8057C17.9508 11.3317 17.8916 10.8372 17.8643 10.3223C17.8369 9.80729 17.8232 9.29232 17.8232 8.77734V8.00488L15.8066 8.06641L15.3008 4.9834L17.8506 5.1543L17.6934 2.0166ZM26.4434 2.0166L29.4307 0.669922L29.3828 5.26367L31.6113 5.31836V7.9502L29.3008 7.97754C29.2188 8.62467 29.1777 9.23307 29.1777 9.80273C29.1777 10.2767 29.2051 10.6686 29.2598 10.9785C29.3053 11.2337 29.4193 11.4297 29.6016 11.5664C29.7839 11.7031 29.9958 11.7715 30.2373 11.7715C30.5062 11.7715 30.7409 11.6917 30.9414 11.5322C31.1465 11.3727 31.249 11.154 31.249 10.876C31.249 10.835 31.2399 10.7552 31.2217 10.6367L33.457 9.18066C33.5527 9.3584 33.6712 9.6569 33.8125 10.0762C33.9583 10.4954 34.0312 10.9535 34.0312 11.4502C34.0312 12.0472 33.874 12.5872 33.5596 13.0703C33.2451 13.5534 32.7074 13.9202 31.9463 14.1709C31.4131 14.3441 30.9095 14.4307 30.4355 14.4307C29.7201 14.4307 29.0889 14.2734 28.542 13.959C27.9997 13.6445 27.5485 13.2663 27.1885 12.8242C27.0199 12.6191 26.8877 12.2796 26.792 11.8057C26.7008 11.3317 26.6416 10.8372 26.6143 10.3223C26.5869 9.80729 26.5732 9.29232 26.5732 8.77734V8.00488L24.5566 8.06641L24.0508 4.9834L26.6006 5.1543L26.4434 2.0166ZM38.4473 7.30762C38.1966 7.33952 37.9482 7.41927 37.7021 7.54688C37.4606 7.67448 37.2533 7.82487 37.0801 7.99805C36.9069 8.17122 36.7702 8.36263 36.6699 8.57227C36.5742 8.77734 36.5264 8.98014 36.5264 9.18066C36.5264 9.59538 36.7223 9.93262 37.1143 10.1924C37.4606 10.4248 37.8115 10.541 38.167 10.541C38.2354 10.541 38.3288 10.5319 38.4473 10.5137V9.05762C38.3242 9.05762 38.2148 9.02572 38.1191 8.96191C37.9824 8.85254 37.9141 8.6429 37.9141 8.33301C37.9141 7.88639 38.0918 7.5446 38.4473 7.30762ZM38.502 6.10449L41.3594 4.81934L41.4141 8.64062C41.4505 8.8776 41.4688 9.14648 41.4688 9.44727C41.4688 9.71159 41.4596 9.90755 41.4414 10.0352L41.5234 14.2256L38.4473 14.3896V13.9727C37.946 14.1777 37.4401 14.2803 36.9297 14.2803C36.5378 14.2803 36.1686 14.221 35.8223 14.1025C35.4805 13.984 35.1842 13.8245 34.9336 13.624C34.528 13.2868 34.2113 12.8333 33.9834 12.2637C33.7555 11.6895 33.6416 11.0833 33.6416 10.4453C33.6416 9.34701 33.9583 8.46061 34.5918 7.78613C35.1387 7.21191 35.7015 6.77669 36.2803 6.48047C36.8636 6.18424 37.4583 6.03613 38.0645 6.03613C38.2331 6.03613 38.3607 6.04069 38.4473 6.0498L38.502 6.10449ZM53.8281 5.87891C54.1198 6.06576 54.3818 6.32552 54.6143 6.6582C54.8512 6.98633 55.0335 7.29167 55.1611 7.57422C55.2887 7.85221 55.373 8.05273 55.4141 8.17578L52.8779 8.73633C52.8369 8.50846 52.7161 8.35807 52.5156 8.28516C52.3151 8.21224 52.1055 8.17578 51.8867 8.17578C50.7292 8.28516 50.1504 8.97559 50.1504 10.2471C50.1823 11.2542 50.499 11.8148 51.1006 11.9287C51.3877 11.9287 51.6475 11.8581 51.8799 11.7168C52.1123 11.5755 52.3105 11.3887 52.4746 11.1562C52.6432 10.9193 52.7822 10.6549 52.8916 10.3633L55.4277 10.876C55.4004 10.9671 55.3343 11.1494 55.2295 11.4229C55.111 11.7282 54.833 12.1361 54.3955 12.6465C53.9626 13.1569 53.4795 13.5146 52.9463 13.7197C52.3037 13.9704 51.6657 14.0957 51.0322 14.0957C50.0205 14.0957 49.1227 13.7653 48.3389 13.1045C47.9834 12.7946 47.7259 12.4346 47.5664 12.0244C47.4023 11.6143 47.3203 11.1813 47.3203 10.7256C47.3203 10.2516 47.3864 9.78451 47.5186 9.32422C47.6507 8.86393 47.8125 8.44466 48.0039 8.06641C48.2546 7.57422 48.5303 7.15495 48.8311 6.80859C49.1318 6.45768 49.4463 6.17285 49.7744 5.9541C50.1071 5.73079 50.4466 5.56673 50.793 5.46191C51.1393 5.3571 51.488 5.30469 51.8389 5.30469C52.5589 5.30469 53.222 5.49609 53.8281 5.87891ZM59.4473 7.30762C59.1966 7.33952 58.9482 7.41927 58.7021 7.54688C58.4606 7.67448 58.2533 7.82487 58.0801 7.99805C57.9069 8.17122 57.7702 8.36263 57.6699 8.57227C57.5742 8.77734 57.5264 8.98014 57.5264 9.18066C57.5264 9.59538 57.7223 9.93262 58.1143 10.1924C58.4606 10.4248 58.8115 10.541 59.167 10.541C59.2354 10.541 59.3288 10.5319 59.4473 10.5137V9.05762C59.3242 9.05762 59.2148 9.02572 59.1191 8.96191C58.9824 8.85254 58.9141 8.6429 58.9141 8.33301C58.9141 7.88639 59.0918 7.5446 59.4473 7.30762ZM59.502 6.10449L62.3594 4.81934L62.4141 8.64062C62.4505 8.8776 62.4688 9.14648 62.4688 9.44727C62.4688 9.71159 62.4596 9.90755 62.4414 10.0352L62.5234 14.2256L59.4473 14.3896V13.9727C58.946 14.1777 58.4401 14.2803 57.9297 14.2803C57.5378 14.2803 57.1686 14.221 56.8223 14.1025C56.4805 13.984 56.1842 13.8245 55.9336 13.624C55.528 13.2868 55.2113 12.8333 54.9834 12.2637C54.7555 11.6895 54.6416 11.0833 54.6416 10.4453C54.6416 9.34701 54.9583 8.46061 55.5918 7.78613C56.1387 7.21191 56.7015 6.77669 57.2803 6.48047C57.8636 6.18424 58.4583 6.03613 59.0645 6.03613C59.2331 6.03613 59.3607 6.04069 59.4473 6.0498L59.502 6.10449ZM63.1934 2.0166L66.1807 0.669922L66.1328 5.26367L68.3613 5.31836V7.9502L66.0508 7.97754C65.9688 8.62467 65.9277 9.23307 65.9277 9.80273C65.9277 10.2767 65.9551 10.6686 66.0098 10.9785C66.0553 11.2337 66.1693 11.4297 66.3516 11.5664C66.5339 11.7031 66.7458 11.7715 66.9873 11.7715C67.2562 11.7715 67.4909 11.6917 67.6914 11.5322C67.8965 11.3727 67.999 11.154 67.999 10.876C67.999 10.835 67.9899 10.7552 67.9717 10.6367L70.207 9.18066C70.3027 9.3584 70.4212 9.6569 70.5625 10.0762C70.7083 10.4954 70.7812 10.9535 70.7812 11.4502C70.7812 12.0472 70.624 12.5872 70.3096 13.0703C69.9951 13.5534 69.4574 13.9202 68.6963 14.1709C68.1631 14.3441 67.6595 14.4307 67.1855 14.4307C66.4701 14.4307 65.8389 14.2734 65.292 13.959C64.7497 13.6445 64.2985 13.2663 63.9385 12.8242C63.7699 12.6191 63.6377 12.2796 63.542 11.8057C63.4508 11.3317 63.3916 10.8372 63.3643 10.3223C63.3369 9.80729 63.3232 9.29232 63.3232 8.77734V8.00488L61.3066 8.06641L60.8008 4.9834L63.3506 5.1543L63.1934 2.0166ZM76.5781 5.87891C76.8698 6.06576 77.1318 6.32552 77.3643 6.6582C77.6012 6.98633 77.7835 7.29167 77.9111 7.57422C78.0387 7.85221 78.123 8.05273 78.1641 8.17578L75.6279 8.73633C75.5869 8.50846 75.4661 8.35807 75.2656 8.28516C75.0651 8.21224 74.8555 8.17578 74.6367 8.17578C73.4792 8.28516 72.9004 8.97559 72.9004 10.2471C72.9323 11.2542 73.249 11.8148 73.8506 11.9287C74.1377 11.9287 74.3975 11.8581 74.6299 11.7168C74.8623 11.5755 75.0605 11.3887 75.2246 11.1562C75.3932 10.9193 75.5322 10.6549 75.6416 10.3633L78.1777 10.876C78.1504 10.9671 78.0843 11.1494 77.9795 11.4229C77.861 11.7282 77.583 12.1361 77.1455 12.6465C76.7126 13.1569 76.2295 13.5146 75.6963 13.7197C75.0537 13.9704 74.4157 14.0957 73.7822 14.0957C72.7705 14.0957 71.8727 13.7653 71.0889 13.1045C70.7334 12.7946 70.4759 12.4346 70.3164 12.0244C70.1523 11.6143 70.0703 11.1813 70.0703 10.7256C70.0703 10.2516 70.1364 9.78451 70.2686 9.32422C70.4007 8.86393 70.5625 8.44466 70.7539 8.06641C71.0046 7.57422 71.2803 7.15495 71.5811 6.80859C71.8818 6.45768 72.1963 6.17285 72.5244 5.9541C72.8571 5.73079 73.1966 5.56673 73.543 5.46191C73.8893 5.3571 74.238 5.30469 74.5889 5.30469C75.3089 5.30469 75.972 5.49609 76.5781 5.87891ZM80.7412 6.10449C81.557 5.83561 82.2611 5.70117 82.8535 5.70117C83.3958 5.70117 83.8675 5.81738 84.2686 6.0498C84.5101 6.19108 84.7812 6.40527 85.082 6.69238C85.3828 6.97493 85.6471 7.28711 85.875 7.62891C86.1074 7.9707 86.2624 8.30339 86.3398 8.62695C86.5814 9.59766 86.7021 10.4453 86.7021 11.1699C86.7021 11.5527 86.6771 11.9561 86.627 12.3799C86.5768 12.7992 86.4993 13.3392 86.3945 14L83.5371 14.1709C83.5462 13.943 83.5508 13.6149 83.5508 13.1865C83.5508 11.4001 83.3047 9.88021 82.8125 8.62695C82.6211 8.15755 82.4342 7.92285 82.252 7.92285C82.015 7.92285 81.7529 8.25098 81.4658 8.90723C81.3975 9.06673 81.3405 9.24902 81.2949 9.4541C81.2539 9.65918 81.222 9.88932 81.1992 10.1445C81.181 10.3997 81.1719 10.7005 81.1719 11.0469C81.1719 11.7487 81.2129 12.6396 81.2949 13.7197L77.9385 14.1094C77.902 13.8451 77.8792 13.5352 77.8701 13.1797C77.8564 12.8242 77.8473 12.4574 77.8428 12.0791C77.8337 11.7008 77.8177 11.3568 77.7949 11.0469C77.7767 10.7324 77.7357 10.377 77.6719 9.98047L77.4873 1.06641L80.29 0.724609L80.7412 6.10449ZM95.7666 6.34375L94.3105 6.14551L93.2031 1.77734L96.0469 2.18066L95.7666 6.34375ZM102.172 10.2197L103.819 12.209C103.687 12.5918 103.373 12.9427 102.876 13.2617C102.384 13.5807 101.796 13.8314 101.112 14.0137C100.433 14.2005 99.7542 14.2939 99.0752 14.2939C98.4736 14.2939 97.9359 14.2142 97.4619 14.0547C96.9925 13.8952 96.6302 13.6536 96.375 13.3301C95.9329 12.7741 95.7119 12.0632 95.7119 11.1973C95.7119 10.5137 95.835 9.84147 96.0811 9.18066C96.3317 8.5153 96.596 8.05046 96.874 7.78613C97.2067 7.47168 97.5667 7.20964 97.9541 7C98.346 6.79036 98.7516 6.63314 99.1709 6.52832C99.5902 6.4235 100.021 6.37109 100.463 6.37109C101.042 6.37109 101.591 6.46452 102.11 6.65137C102.634 6.83366 103.092 7.10026 103.484 7.45117L99.7314 11.9287C100.064 11.9287 100.379 11.8604 100.675 11.7236C100.976 11.5824 101.251 11.3841 101.502 11.1289C101.753 10.8691 101.976 10.5661 102.172 10.2197ZM100.278 8.62695C100.055 8.51302 99.8271 8.45605 99.5947 8.45605C99.3486 8.45605 99.1094 8.50618 98.877 8.60645C98.6491 8.70671 98.4873 8.8252 98.3916 8.96191C98.109 9.3265 97.9678 9.72754 97.9678 10.165C97.9678 10.3245 97.9837 10.4772 98.0156 10.623C98.0475 10.7689 98.1022 10.9694 98.1797 11.2246L100.278 8.62695ZM109.056 6.15918C110.236 5.78548 111.113 5.59863 111.688 5.59863C112.143 5.59863 112.535 5.69206 112.863 5.87891C113.269 6.11133 113.706 6.50781 114.176 7.06836C114.645 7.62891 114.937 8.14844 115.051 8.62695C115.292 9.59766 115.413 10.4453 115.413 11.1699C115.413 11.5527 115.388 11.9561 115.338 12.3799C115.288 12.7992 115.21 13.3392 115.105 14L112.248 14.1709C112.257 13.943 112.262 13.6149 112.262 13.1865C112.262 11.4001 112.016 9.88021 111.523 8.62695C111.432 8.40365 111.325 8.22819 111.202 8.10059C111.079 7.97298 110.97 7.90918 110.874 7.90918C110.774 7.90918 110.724 7.97982 110.724 8.12109C110.724 8.20312 110.733 8.27376 110.751 8.33301C110.783 8.40592 110.815 8.50391 110.847 8.62695C111.093 9.61589 111.216 10.4635 111.216 11.1699C111.216 11.5163 111.193 11.8809 111.147 12.2637C111.102 12.6419 111.022 13.2207 110.908 14L108.051 14.1709C108.06 13.943 108.064 13.6149 108.064 13.1865C108.064 11.3955 107.816 9.87565 107.319 8.62695C107.26 8.48112 107.215 8.32845 107.183 8.16895C107.151 8.00488 107.128 7.92285 107.114 7.92285C107.096 7.92285 107.044 8.02995 106.957 8.24414C106.87 8.45833 106.777 8.67936 106.677 8.90723C106.608 9.06673 106.551 9.24902 106.506 9.4541C106.465 9.65918 106.433 9.88932 106.41 10.1445C106.392 10.3997 106.383 10.7005 106.383 11.0469C106.383 11.7487 106.424 12.6396 106.506 13.7197L103.149 14.1094C103.095 13.7083 103.045 13.3096 102.999 12.9131C102.953 12.5166 102.917 12.1497 102.89 11.8125C102.867 11.4707 102.855 11.1038 102.855 10.7119C102.855 10.5433 102.865 10.2995 102.883 9.98047L102.76 5.99512L105.446 5.65332L105.836 6.10449C106.556 5.87207 107.144 5.75586 107.6 5.75586C108.105 5.75586 108.591 5.8903 109.056 6.15918ZM126.316 7.30762C126.066 7.33952 125.817 7.41927 125.571 7.54688C125.33 7.67448 125.122 7.82487 124.949 7.99805C124.776 8.17122 124.639 8.36263 124.539 8.57227C124.443 8.77734 124.396 8.98014 124.396 9.18066C124.396 9.59538 124.591 9.93262 124.983 10.1924C125.33 10.4248 125.681 10.541 126.036 10.541C126.104 10.541 126.198 10.5319 126.316 10.5137V9.05762C126.193 9.05762 126.084 9.02572 125.988 8.96191C125.852 8.85254 125.783 8.6429 125.783 8.33301C125.783 7.88639 125.961 7.5446 126.316 7.30762ZM126.371 6.10449L129.229 4.81934L129.283 8.64062C129.32 8.8776 129.338 9.14648 129.338 9.44727C129.338 9.71159 129.329 9.90755 129.311 10.0352L129.393 14.2256L126.316 14.3896V13.9727C125.815 14.1777 125.309 14.2803 124.799 14.2803C124.407 14.2803 124.038 14.221 123.691 14.1025C123.35 13.984 123.053 13.8245 122.803 13.624C122.397 13.2868 122.08 12.8333 121.853 12.2637C121.625 11.6895 121.511 11.0833 121.511 10.4453C121.511 9.34701 121.827 8.46061 122.461 7.78613C123.008 7.21191 123.571 6.77669 124.149 6.48047C124.733 6.18424 125.327 6.03613 125.934 6.03613C126.102 6.03613 126.23 6.04069 126.316 6.0498L126.371 6.10449ZM132.585 15.7363L129.502 15.9072L128.887 4.0332L127.882 4.25879L128.217 2.57715L131.689 1.12109L132.585 15.7363ZM136.085 15.7363L133.002 15.9072L132.387 4.0332L131.382 4.25879L131.717 2.57715L135.189 1.12109L136.085 15.7363ZM143.898 11.1426C144.222 11.1426 144.5 11.1973 144.732 11.3066C144.969 11.4115 145.163 11.5413 145.313 11.6963C145.464 11.8467 145.566 11.9788 145.621 12.0928C145.676 12.2204 145.703 12.3571 145.703 12.5029C145.703 12.7262 145.655 12.9518 145.56 13.1797C145.464 13.403 145.345 13.6012 145.204 13.7744C145.067 13.943 144.94 14.0365 144.821 14.0547C144.575 14.0911 144.397 14.1094 144.288 14.1094C143.837 14.1094 143.475 13.9932 143.201 13.7607C142.932 13.5238 142.773 13.2025 142.723 12.7969C142.723 12.4049 142.816 12.0404 143.003 11.7031C143.194 11.3659 143.493 11.179 143.898 11.1426ZM142.887 9.24219L141.991 1.68164L146.079 0.451172L145.238 9.0166L142.887 9.24219Z" fill="black"/>
</svg>
